<svg xmlns="http://www.w3.org/2000/svg" viewBox="-2.4 -2.4 28.8 28.8" width="256" height="256" role="img" aria-label="swatchbook">
  <!-- Generated by scripts/gen-logo.mjs. Edit that script, not this file. -->
  <defs>
    <clipPath id="badge"><path transform="translate(-2.4 -2.4) scale(1.8)" d="M9.166.33a2.25 2.25 0 00-2.332 0l-5.25 3.182A2.25 2.25 0 00.5 5.436v5.128a2.25 2.25 0 001.084 1.924l5.25 3.182a2.25 2.25 0 002.332 0l5.25-3.182a2.25 2.25 0 001.084-1.924V5.436a2.25 2.25 0 00-1.084-1.924L9.166.33z"/></clipPath>
    <style>
      .sb-spin { animation: sb-spin 24s linear infinite; transform-origin: 12px 12px; transform-box: view-box; }
      @keyframes sb-spin { to { transform: rotate(360deg); } }
      @media (prefers-reduced-motion: reduce) { .sb-spin { animation: none; } }
    </style>
  </defs>
  <g transform="rotate(180 12 12)">
    <!-- Badge: spinning conic (gradient.cool token, green/blue poles) -->
    <g clip-path="url(#badge)">
      <g class="sb-spin">
        <path fill="#85edae" d="M12 12 L11.916 -4 A16 16 0 0 1 13.13 -3.96 Z"/>
        <path fill="#84eab1" d="M12 12 L12.963 -3.971 A16 16 0 0 1 14.171 -3.852 Z"/>
        <path fill="#82e7b4" d="M12 12 L14.005 -3.874 A16 16 0 0 1 15.204 -3.676 Z"/>
        <path fill="#80e4b7" d="M12 12 L15.039 -3.709 A16 16 0 0 1 16.222 -3.433 Z"/>
        <path fill="#7fe1bb" d="M12 12 L16.06 -3.476 A16 16 0 0 1 17.222 -3.124 Z"/>
        <path fill="#7ddebe" d="M12 12 L17.064 -3.178 A16 16 0 0 1 18.2 -2.75 Z"/>
        <path fill="#7cdbc1" d="M12 12 L18.045 -2.814 A16 16 0 0 1 19.152 -2.313 Z"/>
        <path fill="#7ad8c4" d="M12 12 L19.001 -2.387 A16 16 0 0 1 20.072 -1.814 Z"/>
        <path fill="#79d5c8" d="M12 12 L19.927 -1.898 A16 16 0 0 1 20.959 -1.257 Z"/>
        <path fill="#77d2cb" d="M12 12 L20.819 -1.35 A16 16 0 0 1 21.807 -0.642 Z"/>
        <path fill="#75cfce" d="M12 12 L21.674 -0.744 A16 16 0 0 1 22.612 0.026 Z"/>
        <path fill="#74ccd1" d="M12 12 L22.486 -0.085 A16 16 0 0 1 23.373 0.746 Z"/>
        <path fill="#72c8d5" d="M12 12 L23.254 0.627 A16 16 0 0 1 24.085 1.514 Z"/>
        <path fill="#71c5d8" d="M12 12 L23.974 1.388 A16 16 0 0 1 24.744 2.326 Z"/>
        <path fill="#6fc2db" d="M12 12 L24.642 2.193 A16 16 0 0 1 25.35 3.181 Z"/>
        <path fill="#6dbfde" d="M12 12 L25.257 3.041 A16 16 0 0 1 25.898 4.073 Z"/>
        <path fill="#6cbce2" d="M12 12 L25.814 3.928 A16 16 0 0 1 26.387 4.999 Z"/>
        <path fill="#6ab9e5" d="M12 12 L26.313 4.848 A16 16 0 0 1 26.814 5.955 Z"/>
        <path fill="#69b6e8" d="M12 12 L26.75 5.8 A16 16 0 0 1 27.178 6.936 Z"/>
        <path fill="#67b3eb" d="M12 12 L27.124 6.778 A16 16 0 0 1 27.476 7.94 Z"/>
        <path fill="#66b0ef" d="M12 12 L27.433 7.778 A16 16 0 0 1 27.709 8.961 Z"/>
        <path fill="#64adf2" d="M12 12 L27.676 8.796 A16 16 0 0 1 27.874 9.995 Z"/>
        <path fill="#62aaf5" d="M12 12 L27.852 9.829 A16 16 0 0 1 27.971 11.037 Z"/>
        <path fill="#61a7f8" d="M12 12 L27.96 10.87 A16 16 0 0 1 28 12.084 Z"/>
        <path fill="#5fa3f9" d="M12 12 L28 11.916 A16 16 0 0 1 27.96 13.13 Z"/>
        <path fill="#5ca0f8" d="M12 12 L27.971 12.963 A16 16 0 0 1 27.852 14.171 Z"/>
        <path fill="#599cf6" d="M12 12 L27.874 14.005 A16 16 0 0 1 27.676 15.204 Z"/>
        <path fill="#5698f5" d="M12 12 L27.709 15.039 A16 16 0 0 1 27.433 16.222 Z"/>
        <path fill="#5395f4" d="M12 12 L27.476 16.06 A16 16 0 0 1 27.124 17.222 Z"/>
        <path fill="#5191f2" d="M12 12 L27.178 17.064 A16 16 0 0 1 26.75 18.2 Z"/>
        <path fill="#4e8df1" d="M12 12 L26.814 18.045 A16 16 0 0 1 26.313 19.152 Z"/>
        <path fill="#4b8aef" d="M12 12 L26.387 19.001 A16 16 0 0 1 25.814 20.072 Z"/>
        <path fill="#4886ee" d="M12 12 L25.898 19.927 A16 16 0 0 1 25.257 20.959 Z"/>
        <path fill="#4583ed" d="M12 12 L25.35 20.819 A16 16 0 0 1 24.642 21.807 Z"/>
        <path fill="#437feb" d="M12 12 L24.744 21.674 A16 16 0 0 1 23.974 22.612 Z"/>
        <path fill="#407bea" d="M12 12 L24.085 22.486 A16 16 0 0 1 23.254 23.373 Z"/>
        <path fill="#3d78e8" d="M12 12 L23.373 23.254 A16 16 0 0 1 22.486 24.085 Z"/>
        <path fill="#3a74e7" d="M12 12 L22.612 23.974 A16 16 0 0 1 21.674 24.744 Z"/>
        <path fill="#3870e5" d="M12 12 L21.807 24.642 A16 16 0 0 1 20.819 25.35 Z"/>
        <path fill="#356de4" d="M12 12 L20.959 25.257 A16 16 0 0 1 19.927 25.898 Z"/>
        <path fill="#3269e3" d="M12 12 L20.072 25.814 A16 16 0 0 1 19.001 26.387 Z"/>
        <path fill="#2f66e1" d="M12 12 L19.152 26.313 A16 16 0 0 1 18.045 26.814 Z"/>
        <path fill="#2c62e0" d="M12 12 L18.2 26.75 A16 16 0 0 1 17.064 27.178 Z"/>
        <path fill="#2a5ede" d="M12 12 L17.222 27.124 A16 16 0 0 1 16.06 27.476 Z"/>
        <path fill="#275bdd" d="M12 12 L16.222 27.433 A16 16 0 0 1 15.039 27.709 Z"/>
        <path fill="#2457dc" d="M12 12 L15.204 27.676 A16 16 0 0 1 14.005 27.874 Z"/>
        <path fill="#2153da" d="M12 12 L14.171 27.852 A16 16 0 0 1 12.963 27.971 Z"/>
        <path fill="#1e50d9" d="M12 12 L13.13 27.96 A16 16 0 0 1 11.916 28 Z"/>
        <path fill="#1e50d9" d="M12 12 L12.084 28 A16 16 0 0 1 10.87 27.96 Z"/>
        <path fill="#2153da" d="M12 12 L11.037 27.971 A16 16 0 0 1 9.829 27.852 Z"/>
        <path fill="#2457dc" d="M12 12 L9.995 27.874 A16 16 0 0 1 8.796 27.676 Z"/>
        <path fill="#275bdd" d="M12 12 L8.961 27.709 A16 16 0 0 1 7.778 27.433 Z"/>
        <path fill="#2a5ede" d="M12 12 L7.94 27.476 A16 16 0 0 1 6.778 27.124 Z"/>
        <path fill="#2c62e0" d="M12 12 L6.936 27.178 A16 16 0 0 1 5.8 26.75 Z"/>
        <path fill="#2f66e1" d="M12 12 L5.955 26.814 A16 16 0 0 1 4.848 26.313 Z"/>
        <path fill="#3269e3" d="M12 12 L4.999 26.387 A16 16 0 0 1 3.928 25.814 Z"/>
        <path fill="#356de4" d="M12 12 L4.073 25.898 A16 16 0 0 1 3.041 25.257 Z"/>
        <path fill="#3870e5" d="M12 12 L3.181 25.35 A16 16 0 0 1 2.193 24.642 Z"/>
        <path fill="#3a74e7" d="M12 12 L2.326 24.744 A16 16 0 0 1 1.388 23.974 Z"/>
        <path fill="#3d78e8" d="M12 12 L1.514 24.085 A16 16 0 0 1 0.627 23.254 Z"/>
        <path fill="#407bea" d="M12 12 L0.746 23.373 A16 16 0 0 1 -0.085 22.486 Z"/>
        <path fill="#437feb" d="M12 12 L0.026 22.612 A16 16 0 0 1 -0.744 21.674 Z"/>
        <path fill="#4583ed" d="M12 12 L-0.642 21.807 A16 16 0 0 1 -1.35 20.819 Z"/>
        <path fill="#4886ee" d="M12 12 L-1.257 20.959 A16 16 0 0 1 -1.898 19.927 Z"/>
        <path fill="#4b8aef" d="M12 12 L-1.814 20.072 A16 16 0 0 1 -2.387 19.001 Z"/>
        <path fill="#4e8df1" d="M12 12 L-2.313 19.152 A16 16 0 0 1 -2.814 18.045 Z"/>
        <path fill="#5191f2" d="M12 12 L-2.75 18.2 A16 16 0 0 1 -3.178 17.064 Z"/>
        <path fill="#5395f4" d="M12 12 L-3.124 17.222 A16 16 0 0 1 -3.476 16.06 Z"/>
        <path fill="#5698f5" d="M12 12 L-3.433 16.222 A16 16 0 0 1 -3.709 15.039 Z"/>
        <path fill="#599cf6" d="M12 12 L-3.676 15.204 A16 16 0 0 1 -3.874 14.005 Z"/>
        <path fill="#5ca0f8" d="M12 12 L-3.852 14.171 A16 16 0 0 1 -3.971 12.963 Z"/>
        <path fill="#5fa3f9" d="M12 12 L-3.96 13.13 A16 16 0 0 1 -4 11.916 Z"/>
        <path fill="#61a7f8" d="M12 12 L-4 12.084 A16 16 0 0 1 -3.96 10.87 Z"/>
        <path fill="#62aaf5" d="M12 12 L-3.971 11.037 A16 16 0 0 1 -3.852 9.829 Z"/>
        <path fill="#64adf2" d="M12 12 L-3.874 9.995 A16 16 0 0 1 -3.676 8.796 Z"/>
        <path fill="#66b0ef" d="M12 12 L-3.709 8.961 A16 16 0 0 1 -3.433 7.778 Z"/>
        <path fill="#67b3eb" d="M12 12 L-3.476 7.94 A16 16 0 0 1 -3.124 6.778 Z"/>
        <path fill="#69b6e8" d="M12 12 L-3.178 6.936 A16 16 0 0 1 -2.75 5.8 Z"/>
        <path fill="#6ab9e5" d="M12 12 L-2.814 5.955 A16 16 0 0 1 -2.313 4.848 Z"/>
        <path fill="#6cbce2" d="M12 12 L-2.387 4.999 A16 16 0 0 1 -1.814 3.928 Z"/>
        <path fill="#6dbfde" d="M12 12 L-1.898 4.073 A16 16 0 0 1 -1.257 3.041 Z"/>
        <path fill="#6fc2db" d="M12 12 L-1.35 3.181 A16 16 0 0 1 -0.642 2.193 Z"/>
        <path fill="#71c5d8" d="M12 12 L-0.744 2.326 A16 16 0 0 1 0.026 1.388 Z"/>
        <path fill="#72c8d5" d="M12 12 L-0.085 1.514 A16 16 0 0 1 0.746 0.627 Z"/>
        <path fill="#74ccd1" d="M12 12 L0.627 0.746 A16 16 0 0 1 1.514 -0.085 Z"/>
        <path fill="#75cfce" d="M12 12 L1.388 0.026 A16 16 0 0 1 2.326 -0.744 Z"/>
        <path fill="#77d2cb" d="M12 12 L2.193 -0.642 A16 16 0 0 1 3.181 -1.35 Z"/>
        <path fill="#79d5c8" d="M12 12 L3.041 -1.257 A16 16 0 0 1 4.073 -1.898 Z"/>
        <path fill="#7ad8c4" d="M12 12 L3.928 -1.814 A16 16 0 0 1 4.999 -2.387 Z"/>
        <path fill="#7cdbc1" d="M12 12 L4.848 -2.313 A16 16 0 0 1 5.955 -2.814 Z"/>
        <path fill="#7ddebe" d="M12 12 L5.8 -2.75 A16 16 0 0 1 6.936 -3.178 Z"/>
        <path fill="#7fe1bb" d="M12 12 L6.778 -3.124 A16 16 0 0 1 7.94 -3.476 Z"/>
        <path fill="#80e4b7" d="M12 12 L7.778 -3.433 A16 16 0 0 1 8.961 -3.709 Z"/>
        <path fill="#82e7b4" d="M12 12 L8.796 -3.676 A16 16 0 0 1 9.995 -3.874 Z"/>
        <path fill="#84eab1" d="M12 12 L9.829 -3.852 A16 16 0 0 1 11.037 -3.971 Z"/>
        <path fill="#85edae" d="M12 12 L10.87 -3.96 A16 16 0 0 1 12.084 -4 Z"/>
      </g>
    </g>
    <!-- Token mark; 80% opacity lets the conic tint it -->
    <g fill="#1e293b" opacity="0.8">
      <path d="M14 16C14 17.1046 13.1046 18 12 18C10.8954 18 10 17.1046 10 16C10 14.8954 10.8954 14 12 14C13.1046 14 14 14.8954 14 16Z"/>
      <path fill-rule="evenodd" clip-rule="evenodd" d="M22 12C22 17.5228 17.5228 22 12 22C6.47715 22 2 17.5228 2 12C2 6.47715 6.47715 2 12 2C17.5228 2 22 6.47715 22 12ZM12 12C9.79086 12 8 10.2091 8 8C8 5.79086 9.79086 4 12 4C7.58172 4 4 7.58172 4 12C4 16.4183 7.58172 20 12 20C14.2091 20 16 18.2091 16 16C16 13.7909 14.2091 12 12 12ZM14 8C14 9.10457 13.1046 10 12 10C10.8954 10 10 9.10457 10 8C10 6.89543 10.8954 6 12 6C13.1046 6 14 6.89543 14 8Z"/>
    </g>
  </g>
</svg>
